<?xml version="1.0" encoding="utf-8"?>
<svg xmlns="http://www.w3.org/2000/svg"
	xmlns:xlink="http://www.w3.org/1999/xlink"
	width="14px" height="14px" viewBox="0 0 14 14">
<path fillRule="evenodd" d="M 7 14C 3.13 14 0 10.87 0 7 0 3.13 3.13-0 7-0 10.87-0 14 3.13 14 7 14 10.87 10.87 14 7 14ZM 7 1.31C 3.86 1.31 1.31 3.86 1.31 7 1.31 10.14 3.86 12.69 7 12.69 10.14 12.69 12.69 10.14 12.69 7 12.69 3.86 10.14 1.31 7 1.31ZM 7.98 4.57C 7.68 4.44 7.35 4.37 7 4.37 5.55 4.37 4.37 5.55 4.37 7 4.37 8.45 5.55 9.62 7 9.62 7.49 9.62 7.94 9.48 8.34 9.26 8.81 8.99 9.1 9.45 9.19 9.62 9.21 9.68 9.24 10.21 8.89 10.42 8.51 10.65 7.68 10.98 7 10.94 4.83 10.8 3.06 9.17 3.06 7 3.06 4.83 4.83 3.06 7 3.06 7.59 3.06 8.15 3.19 8.65 3.42 9.22 3.69 9.41 3.99 9.19 4.37 8.97 4.76 8.43 4.75 7.98 4.57Z" fill="rgb(153,165,177)"/></svg>