<?xml version="1.0" encoding="utf-8"?>
<!-- Generator: Adobe Illustrator 20.1.0, SVG Export Plug-In . SVG Version: 6.00 Build 0)  -->
<svg version="1.0" id="Layer_1" xmlns="http://www.w3.org/2000/svg" xmlns:xlink="http://www.w3.org/1999/xlink" x="0px" y="0px"
	 viewBox="0 0 142 77" enable-background="new 0 0 142 77" xml:space="preserve">
<g>
	<path fill="#DEDEDE" d="M69.8,43.5c0.2,0.2,0.5,0.3,0.7,0.3c0.3,0,0.6-0.1,0.8-0.3c0.3-0.4,8.5-9.7,13-20c1-2.1,1.5-4.3,1.5-6.5
		c0-8.4-6.8-15.2-15.3-15.2c-8.4,0-15.3,6.8-15.3,15.2c0,2.3,0.5,4.5,1.5,6.5C61.2,33.8,69.4,43.1,69.8,43.5z M70.5,3.9
		c7.3,0,13.3,5.9,13.3,13.2c0,2-0.4,3.8-1.3,5.7c-3.6,8.2-9.8,16.1-11.9,18.6c-2.2-2.6-8.4-10.4-12-18.7c-0.8-1.8-1.3-3.7-1.3-5.6
		C57.2,9.8,63.2,3.9,70.5,3.9z"/>
	<path fill="#DEDEDE" d="M70.5,24.1c4,0,7.2-3.2,7.2-7.2c0-4-3.2-7.2-7.2-7.2c-4,0-7.2,3.2-7.2,7.2C63.2,20.9,66.5,24.1,70.5,24.1z
		 M70.5,11.6c2.9,0,5.2,2.3,5.2,5.2s-2.3,5.2-5.2,5.2c-2.9,0-5.2-2.3-5.2-5.2S67.6,11.6,70.5,11.6z"/>
	<path fill="#DEDEDE" d="M96.5,54.6l-6-23c-0.1-0.3-0.3-0.6-0.6-0.7l-5-2l-0.7,1.9l4.5,1.8L94,53l-10-5c-0.3-0.1-0.6-0.1-0.9,0
		l-12.6,5.8L58,48c-0.3-0.1-0.6-0.1-0.9,0l-10,5l5.3-20.4l4.5-1.8l-0.7-1.9l-5,2c-0.3,0.1-0.5,0.4-0.6,0.7l-6,23
		c-0.1,0.4,0,0.8,0.3,1c0.3,0.2,0.7,0.3,1.1,0.1L57.6,50l12.6,5.8c0.3,0.1,0.6,0.1,0.8,0L83.5,50l11.6,5.8c0.1,0.1,0.3,0.1,0.4,0.1
		c0.2,0,0.4-0.1,0.6-0.2C96.5,55.4,96.6,55,96.5,54.6z"/>
</g>
<g>
	<path fill="#D1D1D1" d="M6.6,71.8c-0.3-0.4-0.6-0.9-1-1.3c-0.4-0.5-0.7-0.9-1.1-1.4s-0.8-0.9-1.2-1.2s-0.8-0.7-1.3-1v5H0V60.7h2
		v4.6c0.4-0.4,0.7-0.7,1.1-1.1c0.4-0.4,0.8-0.8,1.1-1.2c0.4-0.4,0.7-0.8,1.1-1.2s0.7-0.7,0.9-1h2.4C8.3,61.1,8,61.5,7.6,62
		s-0.8,0.9-1.2,1.3s-0.8,0.9-1.3,1.3s-0.8,0.9-1.2,1.2c0.4,0.3,0.9,0.7,1.4,1.2c0.5,0.5,0.9,0.9,1.4,1.5C7,69,7.5,69.5,7.9,70.1
		c0.4,0.6,0.8,1.1,1.1,1.7H6.6z"/>
	<path fill="#D1D1D1" d="M13.1,63.2c0.6,0,1.2,0.1,1.6,0.2s0.8,0.4,1,0.7c0.3,0.3,0.4,0.6,0.6,1c0.1,0.4,0.2,0.9,0.2,1.4v5.1
		c-0.3,0.1-0.7,0.1-1.4,0.2c-0.6,0.1-1.3,0.1-2,0.1c-0.5,0-1,0-1.4-0.1c-0.4-0.1-0.8-0.3-1.1-0.5c-0.3-0.2-0.5-0.5-0.7-0.8
		c-0.2-0.3-0.2-0.8-0.2-1.3c0-0.5,0.1-0.9,0.3-1.2c0.2-0.3,0.4-0.6,0.8-0.8c0.3-0.2,0.7-0.4,1.1-0.4s0.9-0.1,1.3-0.1
		c0.2,0,0.4,0,0.7,0c0.2,0,0.5,0.1,0.8,0.1v-0.3c0-0.2,0-0.4-0.1-0.6c-0.1-0.2-0.1-0.4-0.3-0.5c-0.1-0.2-0.3-0.3-0.5-0.4
		c-0.2-0.1-0.5-0.1-0.8-0.1c-0.4,0-0.9,0-1.2,0.1c-0.4,0.1-0.7,0.1-0.9,0.2l-0.2-1.6c0.2-0.1,0.6-0.2,1.1-0.3
		C12.1,63.2,12.6,63.2,13.1,63.2z M13.3,70.4c0.6,0,1.1,0,1.4-0.1v-2.1c-0.1,0-0.3-0.1-0.5-0.1c-0.2,0-0.4,0-0.7,0
		c-0.2,0-0.4,0-0.6,0c-0.2,0-0.4,0.1-0.6,0.2c-0.2,0.1-0.3,0.2-0.4,0.4c-0.1,0.2-0.2,0.3-0.2,0.6c0,0.5,0.1,0.8,0.4,1
		C12.4,70.3,12.8,70.4,13.3,70.4z"/>
	<path fill="#D1D1D1" d="M26.4,67.6c0,0.6-0.1,1.2-0.2,1.8c-0.2,0.5-0.4,1-0.7,1.4c-0.3,0.4-0.7,0.7-1.2,0.9c-0.5,0.2-1,0.3-1.6,0.3
		c-0.4,0-0.8,0-1.1-0.1c-0.3-0.1-0.6-0.2-0.8-0.3v3.2h-1.9V63.7c0.4-0.1,0.9-0.2,1.5-0.3c0.6-0.1,1.2-0.1,1.8-0.1
		c0.7,0,1.3,0.1,1.8,0.3c0.5,0.2,1,0.5,1.3,0.9c0.4,0.4,0.7,0.8,0.8,1.4C26.3,66.3,26.4,66.9,26.4,67.6z M24.4,67.6
		c0-0.9-0.2-1.5-0.6-2c-0.4-0.5-1-0.7-1.9-0.7c-0.2,0-0.4,0-0.6,0c-0.2,0-0.4,0.1-0.6,0.1v4.8c0.2,0.1,0.4,0.2,0.7,0.3
		c0.3,0.1,0.6,0.2,0.9,0.2c0.7,0,1.2-0.2,1.5-0.7S24.4,68.4,24.4,67.6z"/>
	<path fill="#D1D1D1" d="M34.7,65H32v6.8h-1.9V65h-2.7v-1.6h7.3V65z"/>
	<path fill="#D1D1D1" d="M38.9,63.2c0.6,0,1.2,0.1,1.6,0.2s0.8,0.4,1,0.7c0.3,0.3,0.4,0.6,0.6,1c0.1,0.4,0.2,0.9,0.2,1.4v5.1
		c-0.3,0.1-0.7,0.1-1.4,0.2c-0.6,0.1-1.3,0.1-2,0.1c-0.5,0-1,0-1.4-0.1c-0.4-0.1-0.8-0.3-1.1-0.5c-0.3-0.2-0.5-0.5-0.7-0.8
		c-0.2-0.3-0.2-0.8-0.2-1.3c0-0.5,0.1-0.9,0.3-1.2c0.2-0.3,0.4-0.6,0.8-0.8c0.3-0.2,0.7-0.4,1.1-0.4s0.9-0.1,1.3-0.1
		c0.2,0,0.4,0,0.7,0c0.2,0,0.5,0.1,0.8,0.1v-0.3c0-0.2,0-0.4-0.1-0.6c-0.1-0.2-0.1-0.4-0.3-0.5c-0.1-0.2-0.3-0.3-0.5-0.4
		c-0.2-0.1-0.5-0.1-0.8-0.1c-0.4,0-0.9,0-1.2,0.1c-0.4,0.1-0.7,0.1-0.9,0.2l-0.2-1.6c0.2-0.1,0.6-0.2,1.1-0.3
		C37.9,63.2,38.4,63.2,38.9,63.2z M39.1,70.4c0.6,0,1.1,0,1.4-0.1v-2.1c-0.1,0-0.3-0.1-0.5-0.1c-0.2,0-0.4,0-0.7,0
		c-0.2,0-0.4,0-0.6,0c-0.2,0-0.4,0.1-0.6,0.2c-0.2,0.1-0.3,0.2-0.4,0.4c-0.1,0.2-0.2,0.3-0.2,0.6c0,0.5,0.1,0.8,0.4,1
		C38.2,70.3,38.6,70.4,39.1,70.4z"/>
	<path fill="#D1D1D1" d="M48.1,63.7c0.1-0.1,0.3-0.1,0.5-0.2c0.2-0.1,0.4-0.1,0.7-0.1c0.2,0,0.5-0.1,0.7-0.1c0.3,0,0.5,0,0.8,0
		c0.5,0,0.9,0,1.3,0.1c0.4,0.1,0.8,0.2,1.1,0.4c0.3,0.2,0.6,0.4,0.7,0.7c0.2,0.3,0.3,0.7,0.3,1.1c0,0.4-0.1,0.8-0.4,1.1
		c-0.2,0.3-0.5,0.5-0.8,0.7c0.5,0.2,0.8,0.4,1.1,0.8c0.3,0.4,0.4,0.8,0.4,1.3c0,0.4-0.1,0.8-0.3,1.1s-0.4,0.6-0.8,0.8
		c-0.3,0.2-0.7,0.3-1.1,0.4c-0.4,0.1-0.9,0.1-1.4,0.1c-0.6,0-1.2-0.1-1.7-0.2c-0.5-0.1-1-0.2-1.3-0.4l0.3-1.6c0.2,0.1,0.5,0.2,1,0.3
		c0.4,0.1,1,0.2,1.6,0.2c1.2,0,1.8-0.3,1.8-1c0-0.2-0.1-0.4-0.2-0.6c-0.1-0.1-0.2-0.3-0.4-0.3s-0.3-0.1-0.5-0.2c-0.2,0-0.4,0-0.6,0
		h-1.6v-1.4h1.6c0.4,0,0.7-0.1,1-0.2c0.3-0.1,0.4-0.4,0.4-0.8c0-0.3-0.1-0.5-0.4-0.7c-0.3-0.2-0.7-0.3-1.1-0.3c-0.2,0-0.4,0-0.7,0
		s-0.4,0.1-0.6,0.1c-0.2,0-0.4,0.1-0.6,0.1c-0.2,0-0.3,0.1-0.4,0.1L48.1,63.7z"/>
	<path fill="#D1D1D1" d="M59.2,63.2c0.6,0,1.2,0.1,1.6,0.2s0.8,0.4,1,0.7c0.3,0.3,0.4,0.6,0.6,1c0.1,0.4,0.2,0.9,0.2,1.4v5.1
		c-0.3,0.1-0.7,0.1-1.4,0.2c-0.6,0.1-1.3,0.1-2,0.1c-0.5,0-1,0-1.4-0.1c-0.4-0.1-0.8-0.3-1.1-0.5c-0.3-0.2-0.5-0.5-0.7-0.8
		c-0.2-0.3-0.2-0.8-0.2-1.3c0-0.5,0.1-0.9,0.3-1.2c0.2-0.3,0.4-0.6,0.8-0.8c0.3-0.2,0.7-0.4,1.1-0.4s0.9-0.1,1.3-0.1
		c0.2,0,0.4,0,0.7,0c0.2,0,0.5,0.1,0.8,0.1v-0.3c0-0.2,0-0.4-0.1-0.6c-0.1-0.2-0.1-0.4-0.3-0.5c-0.1-0.2-0.3-0.3-0.5-0.4
		c-0.2-0.1-0.5-0.1-0.8-0.1c-0.4,0-0.9,0-1.2,0.1c-0.4,0.1-0.7,0.1-0.9,0.2l-0.2-1.6c0.2-0.1,0.6-0.2,1.1-0.3
		C58.2,63.2,58.7,63.2,59.2,63.2z M59.4,70.4c0.6,0,1.1,0,1.4-0.1v-2.1c-0.1,0-0.3-0.1-0.5-0.1c-0.2,0-0.4,0-0.7,0
		c-0.2,0-0.4,0-0.6,0c-0.2,0-0.4,0.1-0.6,0.2c-0.2,0.1-0.3,0.2-0.4,0.4c-0.1,0.2-0.2,0.3-0.2,0.6c0,0.5,0.1,0.8,0.4,1
		C58.5,70.3,58.9,70.4,59.4,70.4z"/>
	<path fill="#D1D1D1" d="M70.5,65h-3.6v6.8H65v-8.4h5.6V65z"/>
	<path fill="#D1D1D1" d="M79.5,67.6c0,0.6-0.1,1.2-0.2,1.8s-0.4,1-0.7,1.4s-0.7,0.7-1.2,0.9c-0.5,0.2-1,0.3-1.6,0.3
		c-0.4,0-0.8,0-1.1-0.1c-0.3-0.1-0.6-0.2-0.8-0.3v3.2H72V63.7c0.4-0.1,0.9-0.2,1.5-0.3c0.6-0.1,1.2-0.1,1.8-0.1
		c0.7,0,1.3,0.1,1.8,0.3c0.5,0.2,1,0.5,1.3,0.9c0.4,0.4,0.7,0.8,0.8,1.4C79.4,66.3,79.5,66.9,79.5,67.6z M77.5,67.6
		c0-0.9-0.2-1.5-0.6-2c-0.4-0.5-1-0.7-1.9-0.7c-0.2,0-0.4,0-0.6,0c-0.2,0-0.4,0.1-0.6,0.1v4.8c0.2,0.1,0.4,0.2,0.7,0.3
		s0.6,0.2,0.9,0.2c0.7,0,1.2-0.2,1.5-0.7S77.5,68.4,77.5,67.6z"/>
	<path fill="#D1D1D1" d="M88.1,63.4c-0.9,3.2-1.9,6.1-3,8.6c-0.2,0.5-0.4,0.9-0.7,1.2c-0.2,0.3-0.5,0.6-0.8,0.8
		c-0.3,0.2-0.6,0.4-0.9,0.5c-0.3,0.1-0.7,0.2-1.2,0.2c-0.3,0-0.6,0-0.9-0.1c-0.3-0.1-0.5-0.1-0.7-0.2l0.4-1.6
		c0.4,0.1,0.8,0.2,1.1,0.2c0.5,0,0.9-0.1,1.2-0.4c0.3-0.2,0.5-0.6,0.7-1.1c-0.6-1.2-1.2-2.5-1.8-3.8s-1.1-2.9-1.5-4.4h2.1
		c0.1,0.4,0.2,0.9,0.4,1.5s0.3,1.1,0.5,1.6c0.2,0.5,0.4,1.1,0.6,1.6c0.2,0.5,0.4,1,0.6,1.5c0.3-0.9,0.7-2,1-3
		c0.3-1.1,0.6-2.1,0.8-3.1H88.1z"/>
	<path fill="#D1D1D1" d="M88.5,71.8c0.5-0.8,1-1.6,1.7-2.4c0.6-0.8,1.3-1.5,1.9-2.1c-0.6-0.7-1.2-1.3-1.8-2
		c-0.6-0.7-1.1-1.3-1.5-1.9H91c0.3,0.4,0.7,0.9,1.2,1.5c0.4,0.5,1,1.2,1.6,2v-3.5h1.9v3.5c0.7-0.8,1.2-1.4,1.7-2s0.8-1.1,1.2-1.5
		h2.2c-0.4,0.6-0.9,1.2-1.5,1.9s-1.2,1.3-1.8,2c0.7,0.7,1.4,1.4,1.9,2.2c0.6,0.7,1.1,1.5,1.6,2.4h-2.2c-0.2-0.3-0.4-0.7-0.7-1
		c-0.2-0.4-0.5-0.7-0.8-1c-0.3-0.3-0.6-0.7-0.8-1c-0.3-0.3-0.6-0.6-0.8-0.9v4h-1.9v-4c-0.3,0.3-0.6,0.6-0.8,0.9
		c-0.3,0.3-0.6,0.7-0.8,1c-0.3,0.3-0.5,0.7-0.8,1c-0.3,0.3-0.5,0.7-0.7,1H88.5z"/>
	<path fill="#D1D1D1" d="M105.2,63.2c0.6,0,1.2,0.1,1.6,0.2s0.8,0.4,1,0.7c0.3,0.3,0.4,0.6,0.6,1c0.1,0.4,0.2,0.9,0.2,1.4v5.1
		c-0.3,0.1-0.7,0.1-1.4,0.2c-0.6,0.1-1.3,0.1-2,0.1c-0.5,0-1,0-1.4-0.1c-0.4-0.1-0.8-0.3-1.1-0.5c-0.3-0.2-0.5-0.5-0.7-0.8
		c-0.2-0.3-0.2-0.8-0.2-1.3c0-0.5,0.1-0.9,0.3-1.2c0.2-0.3,0.4-0.6,0.8-0.8s0.7-0.4,1.1-0.4c0.4-0.1,0.9-0.1,1.3-0.1
		c0.2,0,0.4,0,0.7,0c0.2,0,0.5,0.1,0.8,0.1v-0.3c0-0.2,0-0.4-0.1-0.6c-0.1-0.2-0.1-0.4-0.3-0.5c-0.1-0.2-0.3-0.3-0.5-0.4
		c-0.2-0.1-0.5-0.1-0.8-0.1c-0.4,0-0.9,0-1.2,0.1c-0.4,0.1-0.7,0.1-0.9,0.2l-0.2-1.6c0.2-0.1,0.6-0.2,1.1-0.3
		C104.2,63.2,104.7,63.2,105.2,63.2z M105.4,70.4c0.6,0,1.1,0,1.4-0.1v-2.1c-0.1,0-0.3-0.1-0.5-0.1c-0.2,0-0.4,0-0.7,0
		c-0.2,0-0.4,0-0.6,0c-0.2,0-0.4,0.1-0.6,0.2c-0.2,0.1-0.3,0.2-0.4,0.4c-0.1,0.2-0.2,0.3-0.2,0.6c0,0.5,0.1,0.8,0.4,1
		S104.9,70.4,105.4,70.4z"/>
	<path fill="#D1D1D1" d="M110.5,67.6c0-0.7,0.1-1.4,0.3-1.9s0.5-1,0.9-1.4s0.8-0.6,1.2-0.8s0.9-0.3,1.4-0.3c1.2,0,2,0.4,2.7,1.1
		s1,1.8,1,3.2c0,0.1,0,0.2,0,0.4c0,0.1,0,0.3,0,0.4h-5.5c0.1,0.7,0.3,1.2,0.7,1.6c0.4,0.4,1,0.6,1.8,0.6c0.5,0,0.9,0,1.3-0.1
		c0.4-0.1,0.7-0.2,0.9-0.3l0.3,1.6c-0.1,0.1-0.3,0.1-0.4,0.2s-0.4,0.1-0.6,0.2c-0.2,0-0.5,0.1-0.8,0.1s-0.6,0-0.8,0
		c-0.7,0-1.4-0.1-1.9-0.3s-1-0.5-1.3-0.9c-0.4-0.4-0.6-0.8-0.8-1.4C110.6,68.8,110.5,68.3,110.5,67.6z M116.1,66.8
		c0-0.3,0-0.5-0.1-0.8c-0.1-0.2-0.2-0.4-0.3-0.6c-0.1-0.2-0.3-0.3-0.5-0.4s-0.5-0.2-0.7-0.2c-0.3,0-0.6,0.1-0.8,0.2
		c-0.2,0.1-0.4,0.3-0.6,0.4c-0.2,0.2-0.3,0.4-0.4,0.6c-0.1,0.2-0.1,0.5-0.2,0.7H116.1z"/>
	<path fill="#D1D1D1" d="M126.4,65h-2.7v6.8h-1.9V65h-2.7v-1.6h7.3V65z"/>
	<path fill="#D1D1D1" d="M127.4,67.6c0-0.6,0.1-1.2,0.3-1.7c0.2-0.5,0.5-1,0.8-1.4s0.8-0.7,1.3-0.9c0.5-0.2,1.1-0.3,1.7-0.3
		c0.8,0,1.5,0.1,2.2,0.4l-0.4,1.6c-0.2-0.1-0.5-0.2-0.8-0.2c-0.3-0.1-0.6-0.1-0.9-0.1c-0.8,0-1.3,0.2-1.7,0.7s-0.6,1.1-0.6,2
		c0,0.8,0.2,1.5,0.6,2c0.4,0.5,1,0.7,1.9,0.7c0.3,0,0.7,0,1-0.1c0.3-0.1,0.6-0.1,0.8-0.2l0.3,1.6c-0.2,0.1-0.5,0.2-1,0.3
		c-0.4,0.1-0.9,0.1-1.3,0.1c-0.7,0-1.3-0.1-1.9-0.3c-0.5-0.2-1-0.5-1.3-0.9c-0.3-0.4-0.6-0.9-0.8-1.4
		C127.5,68.8,127.4,68.2,127.4,67.6z"/>
	<path fill="#D1D1D1" d="M139.1,68.7c-0.1,0-0.3,0-0.4,0s-0.3,0-0.4,0c-0.3,0.5-0.7,1-0.9,1.6c-0.3,0.5-0.6,1.1-0.8,1.5h-2
		c0.3-0.7,0.6-1.3,1-1.9c0.4-0.6,0.7-1.1,1-1.6c-0.5-0.2-0.9-0.5-1.1-0.9c-0.2-0.4-0.4-0.8-0.4-1.3c0-0.5,0.1-0.9,0.3-1.2
		s0.4-0.7,0.7-0.9c0.3-0.2,0.7-0.4,1.2-0.5c0.4-0.1,0.9-0.2,1.5-0.2c0.6,0,1.2,0,1.8,0.1c0.6,0.1,1.1,0.2,1.4,0.3v8.2h-1.9v-3.1
		H139.1z M140.1,64.8c-0.1,0-0.3,0-0.5-0.1c-0.2,0-0.5,0-0.8,0c-1.2,0-1.8,0.4-1.8,1.3c0,0.2,0,0.4,0.1,0.6c0.1,0.2,0.2,0.3,0.4,0.4
		c0.2,0.1,0.3,0.2,0.6,0.2c0.2,0,0.4,0.1,0.7,0.1h1.3V64.8z"/>
</g>
</svg>
