<?xml version="1.0" encoding="utf-8"?>
<svg version="1.0" id="Layer_1" xmlns="http://www.w3.org/2000/svg" xmlns:xlink="http://www.w3.org/1999/xlink" x="0px" y="0px"
	 viewBox="0 0 14 16" enable-background="new 0 0 14 16" xml:space="preserve">
<g>
	<path fill-rule="evenodd" clip-rule="evenodd" fill="#FFFFFF" d="M13,16H1c-0.6,0-1-0.4-1-1V4.5c0-0.6,0.5-1,1-1h2.9
		c0.4,0,0.8,0.3,0.8,0.8C4.7,4.7,4.3,5,3.9,5H1.6v9.5h10.9V5h-2.3C9.7,5,9.3,4.7,9.3,4.2c0-0.4,0.3-0.8,0.8-0.8H13c0.6,0,1,0.4,1,1
		V15C14,15.6,13.5,16,13,16z M10.4,8.2c0,0.2-0.1,0.4-0.2,0.5l-2.6,2.5c-0.1,0.1-0.3,0.2-0.5,0.2c-0.2,0-0.4-0.1-0.5-0.2L3.9,8.8
		C3.7,8.6,3.6,8.5,3.6,8.2c0-0.4,0.3-0.8,0.8-0.8c0.2,0,0.4,0.1,0.5,0.2l1.3,1.2V0.8C6.2,0.3,6.6,0,7,0c0.4,0,0.8,0.3,0.8,0.8v8.2
		L9,7.7c0.1-0.1,0.3-0.2,0.5-0.2C10,7.5,10.4,7.8,10.4,8.2z"/>
</g>
</svg>
