<?xml version="1.0" encoding="UTF-8" standalone="no"?>
<svg width="25px" height="25px" viewBox="0 0 25 25" version="1.1" xmlns="http://www.w3.org/2000/svg" xmlns:xlink="http://www.w3.org/1999/xlink">
    <!-- Generator: Sketch 40.3 (33839) - http://www.bohemiancoding.com/sketch -->
    <title>f</title>
    <desc>Created with Sketch.</desc>
    <defs></defs>
    <g id="Page-1" stroke="none" stroke-width="1" fill="none" fill-rule="evenodd">
        <g id="1440" transform="translate(-1067.000000, -668.000000)">
            <g id="Footer" transform="translate(0.000000, 645.000000)">
                <g id="social" transform="translate(1023.000000, 23.000000)">
                    <g id="f" transform="translate(44.279661, 0.000000)">
                        <path d="M12.2201862,-7.81249999e-05 C5.47150403,-7.81249999e-05 -0.000152754237,5.59679688 -0.000152754237,12.4999219 C-0.000152754237,19.4046094 5.47150403,24.9999219 12.2201862,24.9999219 C18.9696322,24.9999219 24.4405252,19.4046094 24.4405252,12.4999219 C24.4405252,5.59679688 18.9696322,-7.81249999e-05 12.2201862,-7.81249999e-05 L12.2201862,-7.81249999e-05 Z" id="Path" fill="#4F6CA6"></path>
                        <path d="M14.8383939,12.5046094 L13.1260189,12.5046094 L13.1260189,18.7499219 L10.588771,18.7499219 L10.588771,12.5046094 L9.38124873,12.5046094 L9.38124873,10.2983594 L10.588771,10.2983594 L10.588771,8.87023438 C10.588771,7.84757813 11.0630729,6.24992188 13.148932,6.24992188 L15.0285729,6.25773438 L15.0285729,8.39992188 L13.6644775,8.39992188 C13.4422201,8.39992188 13.1260189,8.51320313 13.1260189,9.00148438 L13.1260189,10.2983594 L15.0606513,10.2983594 L14.8383939,12.5046094 Z" id="Path" fill="#FFFFFF"></path>
                    </g>
                </g>
            </g>
        </g>
    </g>
</svg>