<?xml version="1.0" encoding="utf-8"?>
<svg xmlns="http://www.w3.org/2000/svg"
	xmlns:xlink="http://www.w3.org/1999/xlink"
	width="33px" height="33px" viewBox="0 0 33 33">
<g><path fillRule="evenodd" d="M 32.5 17C 32.5 17 29.97 17 29.97 17 29.98 16.83 30 16.67 30 16.5 30 16.33 29.98 16.17 29.97 16 29.97 16 32.5 16 32.5 16 32.78 16 33 16.22 33 16.5 33 16.78 32.78 17 32.5 17ZM 26.38 7.32C 26.16 7.08 25.92 6.84 25.68 6.62 25.68 6.62 27.46 4.83 27.46 4.83 27.66 4.64 27.97 4.64 28.17 4.83 28.36 5.03 28.36 5.34 28.17 5.54 28.17 5.54 26.38 7.32 26.38 7.32ZM 16.5 3C 16.33 3 16.17 3.02 16 3.03 16 3.03 16 0.5 16 0.5 16 0.22 16.22-0 16.5-0 16.78-0 17 0.22 17 0.5 17 0.5 17 3.03 17 3.03 16.83 3.02 16.67 3 16.5 3ZM 6.62 7.32C 6.62 7.32 4.83 5.54 4.83 5.54 4.64 5.34 4.64 5.03 4.83 4.83 5.03 4.64 5.34 4.64 5.54 4.83 5.54 4.83 7.32 6.62 7.32 6.62 7.08 6.84 6.84 7.08 6.62 7.32ZM 3 16.5C 3 16.67 3.02 16.83 3.03 17 3.03 17 0.5 17 0.5 17 0.22 17-0 16.78-0 16.5-0 16.22 0.22 16 0.5 16 0.5 16 3.03 16 3.03 16 3.02 16.17 3 16.33 3 16.5ZM 6.62 25.68C 6.84 25.92 7.08 26.16 7.32 26.38 7.32 26.38 5.54 28.17 5.54 28.17 5.34 28.36 5.03 28.36 4.83 28.17 4.64 27.97 4.64 27.66 4.83 27.46 4.83 27.46 6.62 25.68 6.62 25.68ZM 16.5 30C 16.67 30 16.83 29.98 17 29.97 17 29.97 17 32.5 17 32.5 17 32.78 16.78 33 16.5 33 16.22 33 16 32.78 16 32.5 16 32.5 16 29.97 16 29.97 16.17 29.98 16.33 30 16.5 30ZM 26.38 25.68C 26.38 25.68 28.17 27.46 28.17 27.46 28.36 27.66 28.36 27.97 28.17 28.17 27.97 28.36 27.66 28.36 27.46 28.17 27.46 28.17 25.68 26.38 25.68 26.38 25.92 26.16 26.16 25.92 26.38 25.68Z" fill="rgb(255,102,0)"/><path fillRule="evenodd" d="M 17 5.03C 17 5.03 17 12.05 17 12.05 16.83 12.03 16.67 12 16.5 12 16.33 12 16.17 12.03 16 12.05 16 12.05 16 5.03 16 5.03 16.17 5.02 16.33 5 16.5 5 16.67 5 16.83 5.02 17 5.03ZM 17 20.95C 17 20.95 17 27.97 17 27.97 16.83 27.98 16.67 28 16.5 28 16.33 28 16.17 27.98 16 27.97 16 27.97 16 20.95 16 20.95 16.17 20.97 16.33 21 16.5 21 16.67 21 16.83 20.97 17 20.95ZM 20 19.29C 20 19.29 24.97 24.26 24.97 24.26 24.74 24.51 24.51 24.74 24.26 24.97 24.26 24.97 19.29 20 19.29 20 19.56 19.79 19.79 19.56 20 19.29ZM 13 19.29C 13.21 19.56 13.44 19.79 13.71 20 13.71 20 8.74 24.97 8.74 24.97 8.49 24.74 8.26 24.51 8.03 24.26 8.03 24.26 13 19.29 13 19.29ZM 12 16.5C 12 16.67 12.03 16.83 12.05 17 12.05 17 5.03 17 5.03 17 5.02 16.83 5 16.67 5 16.5 5 16.33 5.02 16.17 5.03 16 5.03 16 12.05 16 12.05 16 12.03 16.17 12 16.33 12 16.5ZM 13 13.71C 13 13.71 8.03 8.74 8.03 8.74 8.26 8.49 8.49 8.26 8.74 8.03 8.74 8.03 13.71 13 13.71 13 13.44 13.21 13.21 13.44 13 13.71ZM 20 13.71C 19.79 13.44 19.56 13.21 19.29 13 19.29 13 24.26 8.03 24.26 8.03 24.51 8.26 24.74 8.49 24.97 8.74 24.97 8.74 20 13.71 20 13.71ZM 21 16.5C 21 16.33 20.97 16.17 20.95 16 20.95 16 27.97 16 27.97 16 27.98 16.17 28 16.33 28 16.5 28 16.67 27.98 16.83 27.97 17 27.97 17 20.95 17 20.95 17 20.97 16.83 21 16.67 21 16.5Z" fill="rgb(255,102,0)"/><path fillRule="evenodd" d="M 16.5 31C 8.49 31 2 24.51 2 16.5 2 8.49 8.49 2 16.5 2 24.51 2 31 8.49 31 16.5 31 24.51 24.51 31 16.5 31ZM 16.5 3C 9.04 3 3 9.04 3 16.5 3 23.96 9.04 30 16.5 30 23.96 30 30 23.96 30 16.5 30 9.04 23.96 3 16.5 3Z" fill="rgb(255,102,0)"/><path fillRule="evenodd" d="M 16.5 22C 13.46 22 11 19.54 11 16.5 11 13.46 13.46 11 16.5 11 19.54 11 22 13.46 22 16.5 22 19.54 19.54 22 16.5 22ZM 16.5 12C 14.01 12 12 14.01 12 16.5 12 18.99 14.01 21 16.5 21 18.99 21 21 18.99 21 16.5 21 14.01 18.99 12 16.5 12Z" fill="rgb(255,102,0)"/><path fillRule="evenodd" d="M 16.5 29C 9.6 29 4 23.4 4 16.5 4 9.6 9.6 4 16.5 4 23.4 4 29 9.6 29 16.5 29 23.4 23.4 29 16.5 29ZM 16.5 5C 10.15 5 5 10.15 5 16.5 5 22.85 10.15 28 16.5 28 22.85 28 28 22.85 28 16.5 28 10.15 22.85 5 16.5 5Z" fill="rgb(255,102,0)"/><path fillRule="evenodd" d="M 16 11C 17.66 11 19 12.34 19 14 19 15.66 17.66 17 16 17 14.34 17 18 15.66 18 14 18 12.34 14.34 11 16 11Z" fill="rgb(255,102,0)"/><path fillRule="evenodd" d="M 11.32 19.61C 10.5 18.17 10.99 16.34 12.42 15.51 13.86 14.68 15.69 15.17 16.52 16.61 17.35 18.04 14.36 15.55 12.92 16.38 11.49 17.21 12.15 21.04 11.32 19.61Z" fill="rgb(255,102,0)"/><path fillRule="evenodd" d="M 21.52 19.39C 20.69 20.83 18.86 21.32 17.42 20.49 15.99 19.66 15.5 17.83 16.32 16.39 17.15 14.96 16.49 18.79 17.92 19.62 19.36 20.45 22.35 17.96 21.52 19.39Z" fill="rgb(255,102,0)"/></g></svg>