<?xml version="1.0" encoding="utf-8"?>
<svg version="1.1" id="Layer_1" xmlns="http://www.w3.org/2000/svg" xmlns:xlink="http://www.w3.org/1999/xlink" x="0px" y="0px"
	 viewBox="0 0 33 33" style="enable-background:new 0 0 33 33;" xml:space="preserve">
<style type="text/css">
	.st0{fill:#FF6333;}
</style>
<path class="st0" d="M32.5,16H31c-0.1-3.6-1.6-6.9-3.9-9.4l1.1-1.1c0.2-0.2,0.2-0.5,0-0.7c-0.2-0.2-0.5-0.2-0.7,0l-1.1,1.1
	C23.9,3.6,20.6,2.1,17,2V0.5C17,0.2,16.8,0,16.5,0C16.2,0,16,0.2,16,0.5V2c-3.6,0.1-6.9,1.6-9.4,3.9L5.5,4.8C5.3,4.6,5,4.6,4.8,4.8
	C4.6,5,4.6,5.3,4.8,5.5l1.1,1.1C3.6,9.1,2.1,12.4,2,16H0.5C0.2,16,0,16.2,0,16.5C0,16.8,0.2,17,0.5,17H2c0.1,3.6,1.6,6.9,3.9,9.4
	l-1.1,1.1c-0.2,0.2-0.2,0.5,0,0.7c0.2,0.2,0.5,0.2,0.7,0l1.1-1.1c2.5,2.3,5.8,3.8,9.4,3.9v1.5c0,0.3,0.2,0.5,0.5,0.5
	c0.3,0,0.5-0.2,0.5-0.5V31c3.6-0.1,6.9-1.6,9.4-3.9l1.1,1.1c0.2,0.2,0.5,0.2,0.7,0c0.2-0.2,0.2-0.5,0-0.7l-1.1-1.1
	c2.3-2.5,3.8-5.8,3.9-9.4h1.5c0.3,0,0.5-0.2,0.5-0.5C33,16.2,32.8,16,32.5,16z M30,16h-1c-0.1-3.1-1.3-5.9-3.3-8l0.7-0.7
	C28.5,9.6,29.9,12.7,30,16z M16.5,21c-1.2,0-2.3-0.5-3.1-1.3c0,0,0,0,0,0c-0.4-0.4-0.7-0.9-0.9-1.4c0.1-0.8,0.3-1.7,0.9-2.1
	c0.7-0.4,1.7,0,2.4,0.3c0,0,0,0,0,0c0.3,0.1,0.4,0.4,0.4,0.7c-0.2,1.1,0.3,2.2,1.4,2.8c0.4,0.2,0.9,0.4,1.3,0.4
	C18.1,20.7,17.3,21,16.5,21z M13.3,13.4C13.3,13.4,13.4,13.3,13.3,13.4c0.8-0.8,2-1.3,3.2-1.3c0,0,0,0,0.1,0
	c0.6,0.5,1.4,1.2,1.4,1.9c0,0.7-0.6,1.3-1.2,1.8c-0.1,0.1-0.5,0.1-0.6,0c-0.9-0.9-2.2-1.1-3.3-0.4c-0.3,0.2-0.6,0.4-0.8,0.7
	C12.2,15,12.6,14.1,13.3,13.4z M21,16.5c0,0.9-0.3,1.7-0.7,2.4c-0.7,0.3-1.7,0.6-2.3,0.3c-0.6-0.4-0.8-1.3-0.9-2.1
	c0-0.2,0-0.5,0.3-0.6c0,0,0,0,0,0c1-0.4,1.6-1.4,1.6-2.5c0-0.5-0.1-1-0.4-1.4c0.4,0.2,0.8,0.5,1.1,0.8c0,0,0,0,0,0
	C20.5,14.2,21,15.3,21,16.5z M20,12.3c-0.8-0.7-1.9-1.1-3-1.2V5c2.8,0.1,5.3,1.2,7.3,3L20,12.3z M16,11.1c-1.1,0.1-2.2,0.5-3,1.2
	L8.7,8c1.9-1.8,4.5-2.9,7.3-3V11.1z M12.3,13c-0.7,0.8-1.1,1.9-1.2,3H5c0.1-2.8,1.2-5.3,3-7.3L12.3,13z M11.1,17
	c0.1,1.1,0.5,2.2,1.2,3L8,24.3c-1.8-1.9-2.9-4.5-3-7.3H11.1z M13,20.7c0.8,0.7,1.9,1.1,3,1.2V28c-2.8-0.1-5.3-1.2-7.3-3L13,20.7z
	 M17,21.9c1.1-0.1,2.2-0.5,3-1.2l4.3,4.3c-1.9,1.8-4.5,2.9-7.3,3V21.9z M20.7,20c0.7-0.8,1.1-1.9,1.2-3H28c-0.1,2.8-1.2,5.3-3,7.3
	L20.7,20z M21.9,16c-0.1-1.1-0.5-2.2-1.2-3L25,8.7c1.8,1.9,2.9,4.5,3,7.3H21.9z M25.7,6.6L25,7.3c-2.1-2-4.9-3.2-8-3.3V3
	C20.3,3.1,23.4,4.5,25.7,6.6z M16,3v1c-3.1,0.1-5.9,1.3-8,3.3L7.3,6.6C9.6,4.5,12.7,3.1,16,3z M6.6,7.3L7.3,8c-2,2.1-3.2,4.9-3.3,8
	H3C3.1,12.7,4.5,9.6,6.6,7.3z M3,17h1c0.1,3.1,1.3,5.9,3.3,8l-0.7,0.7C4.5,23.4,3.1,20.3,3,17z M7.3,26.4L8,25.7
	c2.1,2,4.9,3.2,8,3.3v1C12.7,29.9,9.6,28.5,7.3,26.4z M17,30v-1c3.1-0.1,5.9-1.3,8-3.3l0.7,0.7C23.4,28.5,20.3,29.9,17,30z
	 M26.4,25.7L25.7,25c2-2.1,3.2-4.9,3.3-8h1C29.9,20.3,28.5,23.4,26.4,25.7z"/>
</svg>
