<?xml version="1.0" encoding="utf-8"?>
<svg version="1.1" id="Layer_1" xmlns="http://www.w3.org/2000/svg" xmlns:xlink="http://www.w3.org/1999/xlink" x="0px" y="0px"
	 viewBox="0 0 33 33" style="enable-background:new 0 0 33 33;" xml:space="preserve">
<style type="text/css">
	.st0{fill:#2C2F35;}
</style>
<path class="st0" d="M28.5,17h-24C4.2,17,4,16.8,4,16.5l0,0C4,16.2,4.2,16,4.5,16h24c0.3,0,0.5,0.2,0.5,0.5l0,0
	C29,16.8,28.8,17,28.5,17z"/>
<path class="st0" d="M28.5,25h-24C4.2,25,4,24.8,4,24.5l0,0C4,24.2,4.2,24,4.5,24h24c0.3,0,0.5,0.2,0.5,0.5l0,0
	C29,24.8,28.8,25,28.5,25z"/>
<path class="st0" d="M28.5,9h-24C4.2,9,4,8.8,4,8.5v0C4,8.2,4.2,8,4.5,8h24C28.8,8,29,8.2,29,8.5v0C29,8.8,28.8,9,28.5,9z"/>
</svg>
