<?xml version="1.0" encoding="utf-8"?>
<!-- Generator: Adobe Illustrator 20.1.0, SVG Export Plug-In . SVG Version: 6.00 Build 0)  -->
<svg version="1.1" id="Layer_1" xmlns="http://www.w3.org/2000/svg" xmlns:xlink="http://www.w3.org/1999/xlink" x="0px" y="0px"
	 viewBox="0 0 33 33" style="enable-background:new 0 0 33 33;" xml:space="preserve">
<style type="text/css">
	.st0{fill:#2C2F35;}
</style>
<path class="st0" d="M32.5,17h-32C0.2,17,0,16.8,0,16.5l0,0C0,16.2,0.2,16,0.5,16h32c0.3,0,0.5,0.2,0.5,0.5l0,0
	C33,16.8,32.8,17,32.5,17z"/>
<path class="st0" d="M32.5,28h-32C0.2,28,0,27.8,0,27.5l0,0C0,27.2,0.2,27,0.5,27h32c0.3,0,0.5,0.2,0.5,0.5l0,0
	C33,27.8,32.8,28,32.5,28z"/>
<path class="st0" d="M32.5,6h-32C0.2,6,0,5.8,0,5.5v0C0,5.2,0.2,5,0.5,5h32C32.8,5,33,5.2,33,5.5v0C33,5.8,32.8,6,32.5,6z"/>
</svg>
