<?xml version="1.0" encoding="utf-8"?>
<!-- Generator: Adobe Illustrator 20.1.0, SVG Export Plug-In . SVG Version: 6.00 Build 0)  -->
<svg version="1.1" id="Layer_1" xmlns="http://www.w3.org/2000/svg" xmlns:xlink="http://www.w3.org/1999/xlink" x="0px" y="0px"
	 viewBox="0 0 33 33" style="enable-background:new 0 0 33 33;" xml:space="preserve">
<g>
	<path d="M25.8,15.5H8.2c-0.6,0-1,0.4-1,1s0.4,1,1,1h17.7c0.6,0,1-0.4,1-1C26.8,15.9,26.4,15.5,25.8,15.5z"/>
	<path d="M25.8,23.1H8.2c-0.6,0-1,0.4-1,1c0,0.6,0.4,1,1,1h17.7c0.6,0,1-0.4,1-1C26.8,23.5,26.4,23.1,25.8,23.1z"/>
	<path d="M8.2,9.9h17.7c0.6,0,1-0.4,1-1c0-0.6-0.4-1-1-1H8.2c-0.6,0-1,0.4-1,1S7.6,9.9,8.2,9.9z"/>
</g>
</svg>
