<?xml version="1.0" encoding="utf-8"?>
<svg xmlns="http://www.w3.org/2000/svg"
	xmlns:xlink="http://www.w3.org/1999/xlink"
	width="14px" height="14px" viewBox="0 0 14 14">
<path fillRule="evenodd" d="M 10.29 14C 9.92 14 9.56 13.94 9.22 13.82 4.94 12.3 1.55 8.83 0.16 4.52-0.26 3.22 0.18 1.8 1.26 0.97 1.26 0.97 1.95 0.45 1.95 0.45 2.34 0.15 2.8-0 3.28-0 4.1-0 4.85 0.46 5.23 1.19 5.23 1.19 6.39 3.45 6.39 3.45 6.5 3.67 6.56 3.91 6.56 4.15 6.56 4.54 6.42 4.9 6.16 5.19 6.16 5.19 5.92 5.45 5.92 5.45 5.67 5.71 5.62 6.1 5.78 6.42 6.18 7.19 6.8 7.81 7.58 8.21 7.89 8.37 8.29 8.31 8.54 8.08 8.54 8.08 8.81 7.84 8.81 7.84 9.27 7.41 9.99 7.31 10.54 7.6 10.54 7.6 12.81 8.77 12.81 8.77 13.54 9.14 14 9.89 14 10.71 14 11.29 13.78 11.83 13.37 12.25 13.37 12.25 12.58 13.04 12.58 13.04 11.98 13.65 11.14 14 10.29 14ZM 3.28 1.31C 3.09 1.31 2.9 1.37 2.75 1.49 2.75 1.49 2.06 2.02 2.06 2.02 1.42 2.5 1.16 3.35 1.41 4.11 2.68 8.04 5.76 11.2 9.65 12.58 10.34 12.82 11.14 12.64 11.65 12.12 11.65 12.12 12.43 11.32 12.43 11.32 12.6 11.16 12.69 10.94 12.69 10.71 12.69 10.38 12.5 10.08 12.21 9.93 12.21 9.93 9.94 8.77 9.94 8.77 9.85 8.72 9.74 8.76 9.7 8.8 9.7 8.8 9.43 9.04 9.43 9.04 8.78 9.64 7.76 9.78 6.97 9.37 5.96 8.85 5.14 8.04 4.62 7.02 4.2 6.22 4.34 5.23 4.95 4.56 4.95 4.56 5.19 4.3 5.19 4.3 5.22 4.27 5.25 4.22 5.25 4.15 5.25 4.12 5.24 4.09 5.22 4.05 5.22 4.05 4.06 1.79 4.06 1.79 3.91 1.49 3.61 1.31 3.28 1.31Z" fill="rgb(153,165,177)"/></svg>