<?xml version="1.0" encoding="utf-8"?>
<svg xmlns="http://www.w3.org/2000/svg"
	xmlns:xlink="http://www.w3.org/1999/xlink"
	width="12px" height="14px" viewBox="0 0 12 14">
<path fillRule="evenodd" d="M 11.04 8.1C 11.04 8.1 7.05 13.5 7.05 13.5 6.83 13.8 6.44 14 6 14 5.56 14 5.17 13.8 4.95 13.5 4.95 13.5 0.96 8.1 0.96 8.1 0.35 7.28-0 6.3-0 5.25-0 2.35 2.69-0 6-0 9.31-0 12 2.35 12 5.25 12 6.3 11.65 7.28 11.04 8.1ZM 6 1.31C 3.52 1.31 1.5 3.08 1.5 5.25 1.5 6.01 1.75 6.75 2.22 7.38 2.22 7.38 6 12.5 6 12.5 6 12.5 9.78 7.38 9.78 7.38 10.25 6.75 10.5 6.01 10.5 5.25 10.5 3.08 8.48 1.31 6 1.31ZM 6 7.44C 4.62 7.44 3.5 6.46 3.5 5.25 3.5 4.04 4.62 3.06 6 3.06 7.38 3.06 8.5 4.04 8.5 5.25 8.5 6.46 7.38 7.44 6 7.44ZM 6 4.37C 5.45 4.37 5 4.77 5 5.25 5 5.73 5.45 6.12 6 6.12 6.55 6.12 7 5.73 7 5.25 7 4.77 6.55 4.37 6 4.37Z" fill="rgb(153,165,177)"/></svg>